<svg width="442" height="302" viewBox="0 0 442 302" fill="none" xmlns="http://www.w3.org/2000/svg">
<g clip-path="url(#clip0)">
<path d="M418.193 245.722C416.285 245.722 414.454 246.647 412.748 248.328C408.108 231.642 400.924 220.919 392.853 220.919C384.782 220.919 377.598 231.642 372.957 248.328C371.251 246.647 369.42 245.722 367.512 245.722C358.343 245.722 350.91 266.82 350.91 292.846H434.795C434.795 266.82 427.362 245.722 418.193 245.722Z" fill="#D0CDE1"/>
<path d="M170.032 219.056C168.059 219.096 166.151 219.766 164.587 220.967C159.947 208.731 152.763 200.867 144.692 200.867C136.621 200.867 129.437 208.731 124.796 220.967C123.233 219.766 121.324 219.096 119.351 219.056C110.182 219.056 102.749 234.528 102.749 253.613H186.634C186.634 234.528 179.201 219.056 170.032 219.056Z" fill="#D0CDE1"/>
<path d="M442 302H0.737305C1.13489 266.229 99.7656 237.266 221.369 237.266C342.972 237.266 441.603 266.229 442 302Z" fill="#3F3D56"/>
<path d="M56.4379 161.354C87.6078 161.354 112.876 136.143 112.876 105.043C112.876 73.9436 87.6078 48.7325 56.4379 48.7325C25.2681 48.7325 0 73.9436 0 105.043C0 136.143 25.2681 161.354 56.4379 161.354Z" fill="#D0CDE1"/>
<path d="M58.2583 266.255H55.0723V111.596C55.0723 107.244 55.6073 102.908 56.6653 98.6854V98.6854C57.7233 102.908 58.2583 107.244 58.2583 111.596L58.2583 266.255Z" fill="#3F3D56"/>
<path d="M56.8442 152.932L55.166 150.23L78.7395 135.655C80.3749 134.644 82.2672 134.123 84.1908 134.155V134.155C83.3628 135.887 82.0531 137.346 80.4177 138.357L56.8442 152.932Z" fill="#3F3D56"/>
<path d="M55.7345 138.244L57.4127 135.541L41.1901 125.512C39.9036 124.716 38.3645 124.432 36.8779 124.715V124.715C37.2853 126.17 38.2254 127.418 39.5119 128.214L55.7345 138.244Z" fill="#3F3D56"/>
<path d="M55.7345 200.004L57.4127 197.301L41.1901 187.272C39.9036 186.476 38.3645 186.192 36.8779 186.475V186.475C37.2853 187.93 38.2254 189.178 39.5119 189.974L55.7345 200.004Z" fill="#3F3D56"/>
<path d="M355.716 159.891C385.637 159.891 409.892 135.691 409.892 105.838C409.892 75.9845 385.637 51.7839 355.716 51.7839C325.795 51.7839 301.54 75.9845 301.54 105.838C301.54 135.691 325.795 159.891 355.716 159.891Z" fill="#D0CDE1"/>
<path d="M353.969 260.588H357.027V112.128C357.027 107.95 356.514 103.788 355.498 99.7347C354.482 103.788 353.969 107.95 353.969 112.128V260.588Z" fill="#3F3D56"/>
<path d="M355.326 151.807L356.937 149.213L334.308 135.223C332.738 134.252 330.922 133.752 329.075 133.782V133.782C329.87 135.446 331.127 136.846 332.697 137.817L355.326 151.807Z" fill="#3F3D56"/>
<path d="M356.392 137.707L354.781 135.114L370.354 125.486C371.589 124.722 373.066 124.449 374.493 124.721C374.102 126.117 373.2 127.316 371.965 128.079L356.392 137.707Z" fill="#3F3D56"/>
<path d="M356.392 196.992L354.781 194.398L370.354 184.77C371.589 184.007 373.066 183.734 374.493 184.006V184.006C374.102 185.402 373.2 186.6 371.965 187.364L356.392 196.992Z" fill="#3F3D56"/>
<path d="M64.7843 296.574C64.2959 296.575 63.8131 296.677 63.3664 296.874C62.1579 294.952 60.287 293.718 58.1853 293.718C56.0835 293.718 54.2126 294.952 53.0041 296.874C52.5574 296.677 52.0746 296.575 51.5862 296.574C49.1984 296.574 47.2627 299.003 47.2627 302H69.1078C69.1078 299.003 67.1721 296.574 64.7843 296.574Z" fill="#D0CDE1"/>
<path d="M200.225 292.861C199.71 292.872 199.212 293.049 198.807 293.366C197.598 290.13 195.727 288.051 193.626 288.051C191.524 288.051 189.653 290.13 188.445 293.366C188.039 293.049 187.542 292.872 187.027 292.861C184.639 292.861 182.703 296.953 182.703 302H204.548C204.548 296.953 202.612 292.861 200.225 292.861Z" fill="#D0CDE1"/>
<path d="M388.529 292.861C388.014 292.872 387.517 293.049 387.111 293.366C385.903 290.13 384.032 288.051 381.93 288.051C379.829 288.051 377.958 290.13 376.749 293.366C376.344 293.049 375.846 292.872 375.331 292.861C372.944 292.861 371.008 296.953 371.008 302H392.853C392.853 296.953 390.917 292.861 388.529 292.861Z" fill="#36C554"/>
<path d="M271.475 210.142L270.781 213.431L269.913 216.72L267.138 255.842L276.68 256.534L281.017 213.777L280.323 211.527L271.475 210.142Z" fill="#2F2E41"/>
<path d="M263.321 250.475L259.33 256.534C259.33 256.534 248.226 265.536 256.207 266.055C264.188 266.574 267.138 260.689 267.138 260.689C267.138 260.689 269.913 259.823 270.26 258.958C270.607 258.092 269.566 250.475 269.566 250.475H263.321Z" fill="#2F2E41"/>
<path d="M267.831 255.149C267.831 255.149 263.841 265.189 264.361 266.92C264.882 268.652 265.749 268.652 265.576 270.209C265.402 271.767 264.882 275.403 271.475 275.576C278.068 275.749 274.945 266.92 274.945 266.92L274.077 255.149H267.831Z" fill="#2F2E41"/>
<path d="M255.686 180.887C255.686 180.887 253.257 185.042 253.604 187.638C253.951 190.235 258.983 218.105 258.983 218.105L262.973 252.033L271.821 251.341L268.351 220.009L269.219 195.082L270.78 213.431L281.017 213.777L287.089 187.638C287.089 187.638 282.578 180.368 281.711 179.849C280.843 179.329 255.686 180.887 255.686 180.887Z" fill="#2F2E41"/>
<path d="M267.745 128.35C271.865 128.35 275.205 125.017 275.205 120.906C275.205 116.795 271.865 113.463 267.745 113.463C263.624 113.463 260.284 116.795 260.284 120.906C260.284 125.017 263.624 128.35 267.745 128.35Z" fill="#FFB8B8"/>
<path d="M265.576 125.666L266.617 135.533L278.068 133.802L271.822 122.204L265.576 125.666Z" fill="#FFB8B8"/>
<path d="M277.2 130.86C277.2 130.86 271.302 135.187 265.576 132.764L256.901 154.748V182.272C256.901 182.272 269.914 186.08 277.2 181.58C277.2 181.58 282.405 180.541 283.273 180.714C284.14 180.887 280.15 133.803 280.15 133.803L277.2 130.86Z" fill="#D0CDE1"/>
<path d="M271.822 131.898L275.813 137.611C276.589 139.039 276.835 140.694 276.507 142.285C275.986 145.054 275.466 181.233 280.324 182.618C285.182 184.003 288.304 183.83 288.304 183.83C288.304 183.83 283.967 163.057 285.529 159.422L290.386 137.611L277.548 130.34C277.548 130.34 276.745 127.051 275.411 128.869C274.421 130.099 273.202 131.128 271.822 131.898V131.898Z" fill="#575A89"/>
<path d="M260.198 164.096L266.124 130.86L260.198 133.976C260.198 133.976 253.431 136.745 252.043 140.034C250.655 143.323 245.104 159.076 245.104 159.076C245.104 159.076 246.492 168.597 251.696 164.615C256.901 160.634 255.687 158.73 255.687 158.73C255.687 158.73 251.176 177.079 251.87 177.598C252.564 178.118 252.911 182.964 252.911 182.964L258.289 181.926L260.198 164.096Z" fill="#575A89"/>
<path d="M253.431 145.574L255.686 142.285C255.686 142.285 260.787 132.072 264.483 135.534C268.178 138.996 257.595 146.959 257.595 146.959L253.431 145.574Z" fill="#FFB8B8"/>
<path d="M283.966 181.407L282.578 183.183L286.048 187.638L287.61 184.522L283.966 181.407Z" fill="#FFB8B8"/>
<path d="M264.754 114.74C263.989 114.748 263.319 115.221 262.69 115.656C262.062 116.091 261.349 116.524 260.589 116.439C260.234 116.375 259.899 116.229 259.613 116.01C259.326 115.792 259.096 115.508 258.942 115.183C258.639 114.531 258.443 113.835 258.363 113.12L259.229 113.425L258.528 112.63L265.98 110.37C268.235 109.687 270.784 109.028 272.849 110.16C273.917 110.817 274.781 111.756 275.345 112.874C276.519 115.016 277.118 117.424 277.083 119.866C277.049 122.307 276.381 124.697 275.147 126.805C274.004 126.708 273.259 125.514 273.073 124.384C272.888 123.255 273.068 122.085 272.84 120.963C272.611 119.842 271.753 118.693 270.607 118.728L270.003 120.012C270.389 119.191 268.095 117.183 267.547 116.81C267.067 116.537 266.619 116.211 266.211 115.838C265.737 115.344 265.618 114.732 264.754 114.74Z" fill="#2F2E41"/>
<path d="M254.125 143.67L258.289 146.266L254.125 163.577C254.125 163.577 247.532 171.713 245.103 163.577C243.07 156.766 250.761 147.409 253.322 144.541C253.821 143.982 254.125 143.67 254.125 143.67Z" fill="#575A89"/>
<path d="M286.395 137.265H290.385C290.385 137.265 293.855 144.016 294.202 147.651C294.549 151.286 294.549 165.654 294.549 165.654L287.783 185.734L282.578 181.926L286.916 169.982C286.916 169.982 286.395 167.385 286.916 166.173C287.436 164.962 285.354 158.73 285.007 158.384C284.66 158.037 286.395 137.265 286.395 137.265Z" fill="#575A89"/>
<path d="M192.124 56.7914L239.071 56.7914V52.6174L192.124 52.6174V56.7914Z" fill="#3F3D56"/>
<path d="M192.124 72.1678H239.071V67.9938H192.124V72.1678Z" fill="#3F3D56"/>
<path d="M192.124 85.9426H239.071V81.7686H192.124V85.9426Z" fill="#3F3D56"/>
<path d="M115.904 94.9143L138.931 71.5043H164.963V70.6324H138.567L138.438 70.7619L115.282 94.3014L115.904 94.9143Z" fill="#3F3D56"/>
<path d="M177.354 61.1113C180.191 61.1113 182.491 58.8165 182.491 55.9858C182.491 53.1551 180.191 50.8603 177.354 50.8603C174.517 50.8603 172.217 53.1551 172.217 55.9858C172.217 58.8165 174.517 61.1113 177.354 61.1113Z" fill="#36C554"/>
<path d="M177.354 76.4877C180.191 76.4877 182.491 74.193 182.491 71.3622C182.491 68.5315 180.191 66.2368 177.354 66.2368C174.517 66.2368 172.217 68.5315 172.217 71.3622C172.217 74.193 174.517 76.4877 177.354 76.4877Z" fill="#36C554"/>
<path d="M177.354 90.2624C180.191 90.2624 182.491 87.9677 182.491 85.137C182.491 82.3062 180.191 80.0115 177.354 80.0115C174.517 80.0115 172.217 82.3062 172.217 85.137C172.217 87.9677 174.517 90.2624 177.354 90.2624Z" fill="#36C554"/>
<path d="M174.465 54.7044C174.465 53.6273 174.785 52.5744 175.385 51.6788C175.984 50.7833 176.837 50.0853 177.834 49.6731C178.832 49.2609 179.929 49.1531 180.988 49.3632C182.047 49.5733 183.019 50.092 183.782 50.8536C184.546 51.6152 185.066 52.5856 185.276 53.6419C185.487 54.6983 185.379 55.7933 184.966 56.7884C184.553 57.7835 183.853 58.634 182.955 59.2324C182.058 59.8308 181.003 60.1502 179.923 60.1502C178.476 60.1486 177.089 59.5743 176.065 58.5534C175.042 57.5324 174.466 56.1482 174.465 54.7044V54.7044ZM175.107 54.7044C175.107 55.6547 175.389 56.5838 175.919 57.374C176.448 58.1642 177.2 58.7801 178.08 59.1438C178.96 59.5074 179.928 59.6026 180.863 59.4172C181.797 59.2318 182.655 58.7741 183.328 58.1021C184.002 57.4301 184.461 56.5739 184.646 55.6418C184.832 54.7097 184.737 53.7436 184.372 52.8655C184.008 51.9875 183.391 51.237 182.599 50.709C181.807 50.1811 180.876 49.8992 179.923 49.8992C178.646 49.9007 177.422 50.4074 176.519 51.3082C175.616 52.209 175.108 53.4304 175.107 54.7044V54.7044Z" fill="#3F3D56"/>
<path d="M174.465 70.0808C174.465 69.0038 174.785 67.9509 175.385 67.0553C175.984 66.1597 176.837 65.4617 177.834 65.0496C178.832 64.6374 179.929 64.5295 180.988 64.7397C182.047 64.9498 183.019 65.4684 183.782 66.2301C184.546 66.9917 185.066 67.962 185.276 69.0184C185.487 70.0748 185.379 71.1698 184.966 72.1649C184.553 73.16 183.853 74.0105 182.955 74.6089C182.058 75.2073 181.003 75.5267 179.923 75.5267C178.476 75.5251 177.089 74.9508 176.065 73.9298C175.042 72.9089 174.466 71.5247 174.465 70.0808V70.0808ZM175.107 70.0808C175.107 71.0312 175.389 71.9602 175.919 72.7504C176.448 73.5406 177.2 74.1565 178.08 74.5202C178.96 74.8839 179.928 74.9791 180.863 74.7937C181.797 74.6083 182.655 74.1506 183.328 73.4786C184.002 72.8066 184.461 71.9504 184.646 71.0183C184.832 70.0862 184.737 69.12 184.372 68.242C184.008 67.364 183.391 66.6135 182.599 66.0855C181.807 65.5575 180.876 65.2757 179.923 65.2757C178.646 65.2771 177.422 65.7839 176.519 66.6847C175.616 67.5855 175.108 68.8069 175.107 70.0808V70.0808Z" fill="#3F3D56"/>
<path d="M174.465 83.8556C174.465 82.7785 174.785 81.7256 175.385 80.83C175.984 79.9345 176.837 79.2364 177.834 78.8243C178.832 78.4121 179.929 78.3042 180.988 78.5144C182.047 78.7245 183.019 79.2432 183.782 80.0048C184.546 80.7664 185.066 81.7367 185.276 82.7931C185.487 83.8495 185.379 84.9445 184.966 85.9396C184.553 86.9347 183.853 87.7852 182.955 88.3836C182.058 88.982 181.003 89.3014 179.923 89.3014C178.476 89.2998 177.089 88.7255 176.065 87.7045C175.042 86.6836 174.466 85.2994 174.465 83.8556V83.8556ZM175.107 83.8556C175.107 84.8059 175.389 85.7349 175.919 86.5251C176.448 87.3153 177.2 87.9312 178.08 88.2949C178.96 88.6586 179.928 88.7538 180.863 88.5684C181.797 88.3829 182.655 87.9253 183.328 87.2533C184.002 86.5813 184.461 85.7251 184.646 84.793C184.832 83.8609 184.737 82.8947 184.372 82.0167C184.008 81.1387 183.391 80.3882 182.599 79.8602C181.807 79.3322 180.876 79.0504 179.923 79.0504C178.646 79.0519 177.422 79.5586 176.519 80.4594C175.616 81.3602 175.108 82.5816 175.107 83.8556V83.8556Z" fill="#3F3D56"/>
<path d="M281.251 3.35883H234.304V7.53284H281.251V3.35883Z" fill="#3F3D56"/>
<path d="M281.251 18.7352H234.304V22.9092H281.251V18.7352Z" fill="#3F3D56"/>
<path d="M281.251 32.5099H234.304V36.684H281.251V32.5099Z" fill="#3F3D56"/>
<path d="M353.102 50.0149L334.444 22.2457H308.412V21.3739H334.808L334.937 21.5034L353.724 49.402L353.102 50.0149Z" fill="#3F3D56"/>
<path d="M296.021 11.8527C298.858 11.8527 301.158 9.55795 301.158 6.72723C301.158 3.8965 298.858 1.60175 296.021 1.60175C293.184 1.60175 290.884 3.8965 290.884 6.72723C290.884 9.55795 293.184 11.8527 296.021 11.8527Z" fill="#36C554"/>
<path d="M296.021 27.2291C298.858 27.2291 301.158 24.9344 301.158 22.1036C301.158 19.2729 298.858 16.9781 296.021 16.9781C293.184 16.9781 290.884 19.2729 290.884 22.1036C290.884 24.9344 293.184 27.2291 296.021 27.2291Z" fill="#36C554"/>
<path d="M296.021 41.0038C298.858 41.0038 301.158 38.7091 301.158 35.8783C301.158 33.0476 298.858 30.7529 296.021 30.7529C293.184 30.7529 290.884 33.0476 290.884 35.8783C290.884 38.7091 293.184 41.0038 296.021 41.0038Z" fill="#36C554"/>
<path d="M293.452 10.8917C292.373 10.8917 291.317 10.5723 290.42 9.97386C289.522 9.37547 288.823 8.52495 288.41 7.52985C287.997 6.53476 287.888 5.43978 288.099 4.3834C288.31 3.32701 288.829 2.35666 289.593 1.59505C290.356 0.833435 291.329 0.314771 292.387 0.104642C293.446 -0.105486 294.544 0.00236021 295.541 0.414542C296.538 0.826723 297.391 1.52473 297.991 2.42029C298.59 3.31585 298.91 4.36874 298.91 5.44583C298.909 6.88965 298.333 8.27388 297.31 9.29482C296.287 10.3158 294.899 10.89 293.452 10.8917V10.8917ZM293.452 0.640685C292.5 0.640685 291.569 0.922503 290.777 1.4505C289.985 1.97849 289.367 2.72895 289.003 3.60698C288.638 4.485 288.543 5.45116 288.729 6.38326C288.915 7.31537 289.373 8.17156 290.047 8.84357C290.72 9.51558 291.579 9.97323 292.513 10.1586C293.447 10.344 294.415 10.2489 295.295 9.8852C296.175 9.52151 296.927 8.90562 297.457 8.11542C297.986 7.32522 298.268 6.39619 298.268 5.44583C298.267 4.17187 297.759 2.9505 296.856 2.04967C295.953 1.14885 294.729 0.642128 293.452 0.640685V0.640685Z" fill="#3F3D56"/>
<path d="M293.452 26.2681C292.373 26.2681 291.317 25.9487 290.42 25.3503C289.522 24.7519 288.823 23.9014 288.41 22.9063C287.997 21.9112 287.888 20.8162 288.099 19.7599C288.31 18.7035 288.829 17.7331 289.593 16.9715C290.356 16.2099 291.329 15.6912 292.387 15.4811C293.446 15.271 294.544 15.3788 295.541 15.791C296.538 16.2032 297.391 16.9012 297.991 17.7968C298.59 18.6923 298.91 19.7452 298.91 20.8223C298.909 22.2661 298.333 23.6504 297.31 24.6713C296.287 25.6922 294.899 26.2665 293.452 26.2681V26.2681ZM293.452 16.0172C292.5 16.0172 291.569 16.299 290.777 16.827C289.985 17.355 289.367 18.1054 289.003 18.9835C288.638 19.8615 288.543 20.8276 288.729 21.7597C288.915 22.6918 289.373 23.548 290.047 24.22C290.72 24.8921 291.579 25.3497 292.513 25.5351C293.447 25.7205 294.415 25.6254 295.295 25.2617C296.175 24.898 296.927 24.2821 297.457 23.4919C297.986 22.7017 298.268 21.7727 298.268 20.8223C298.267 19.5483 297.759 18.327 296.856 17.4261C295.953 16.5253 294.729 16.0186 293.452 16.0172V16.0172Z" fill="#3F3D56"/>
<path d="M293.452 40.0428C292.373 40.0428 291.317 39.7234 290.42 39.125C289.522 38.5266 288.823 37.6761 288.41 36.681C287.997 35.6859 287.888 34.591 288.099 33.5346C288.31 32.4782 288.829 31.5078 289.593 30.7462C290.356 29.9846 291.329 29.466 292.387 29.2558C293.446 29.0457 294.544 29.1535 295.541 29.5657C296.538 29.9779 297.391 30.6759 297.991 31.5715C298.59 32.467 298.91 33.5199 298.91 34.597C298.909 36.0408 298.333 37.4251 297.31 38.446C296.287 39.4669 294.899 40.0412 293.452 40.0428V40.0428ZM293.452 29.7919C292.5 29.7919 291.569 30.0737 290.777 30.6017C289.985 31.1297 289.367 31.8801 289.003 32.7582C288.638 33.6362 288.543 34.6023 288.729 35.5344C288.915 36.4666 289.373 37.3227 290.047 37.9948C290.72 38.6668 291.579 39.1244 292.513 39.3098C293.447 39.4952 294.415 39.4001 295.295 39.0364C296.175 38.6727 296.927 38.0568 297.457 37.2666C297.986 36.4764 298.268 35.5474 298.268 34.597C298.267 33.3231 297.759 32.1017 296.856 31.2009C295.953 30.3 294.729 29.7933 293.452 29.7919V29.7919Z" fill="#3F3D56"/>
<path d="M198.538 167.332H231.327V164.417H198.538V167.332Z" fill="#3F3D56"/>
<path d="M198.538 178.071H231.327V175.156H198.538V178.071Z" fill="#3F3D56"/>
<path d="M198.538 187.692H231.327V184.776H198.538V187.692Z" fill="#3F3D56"/>
<path d="M145.305 193.958L161.388 177.608H179.569V176.999H161.133L161.043 177.089L144.871 193.53L145.305 193.958Z" fill="#3F3D56"/>
<path d="M188.224 170.349C190.205 170.349 191.811 168.746 191.811 166.769C191.811 164.792 190.205 163.189 188.224 163.189C186.242 163.189 184.636 164.792 184.636 166.769C184.636 168.746 186.242 170.349 188.224 170.349Z" fill="#36C554"/>
<path d="M188.224 181.088C190.205 181.088 191.811 179.485 191.811 177.508C191.811 175.531 190.205 173.929 188.224 173.929C186.242 173.929 184.636 175.531 184.636 177.508C184.636 179.485 186.242 181.088 188.224 181.088Z" fill="#36C554"/>
<path d="M188.224 190.709C190.205 190.709 191.811 189.106 191.811 187.129C191.811 185.152 190.205 183.549 188.224 183.549C186.242 183.549 184.636 185.152 184.636 187.129C184.636 189.106 186.242 190.709 188.224 190.709Z" fill="#36C554"/>
<path d="M186.205 165.874C186.205 165.122 186.429 164.387 186.848 163.761C187.266 163.136 187.862 162.648 188.558 162.36C189.255 162.072 190.021 161.997 190.761 162.144C191.5 162.291 192.18 162.653 192.713 163.185C193.246 163.717 193.609 164.394 193.756 165.132C193.903 165.87 193.828 166.635 193.539 167.33C193.251 168.025 192.762 168.619 192.135 169.037C191.508 169.455 190.771 169.678 190.017 169.678C189.006 169.677 188.038 169.275 187.323 168.562C186.608 167.849 186.206 166.883 186.205 165.874V165.874ZM186.654 165.874C186.654 166.538 186.851 167.187 187.22 167.739C187.59 168.291 188.115 168.721 188.73 168.975C189.345 169.229 190.021 169.295 190.673 169.166C191.326 169.036 191.925 168.717 192.396 168.247C192.866 167.778 193.186 167.18 193.316 166.529C193.446 165.878 193.379 165.203 193.125 164.59C192.87 163.977 192.439 163.453 191.886 163.084C191.333 162.715 190.682 162.518 190.017 162.518C189.125 162.519 188.27 162.873 187.64 163.502C187.009 164.131 186.655 164.984 186.654 165.874V165.874Z" fill="#3F3D56"/>
<path d="M186.205 176.613C186.205 175.861 186.429 175.126 186.848 174.5C187.266 173.875 187.862 173.387 188.558 173.099C189.255 172.812 190.021 172.736 190.761 172.883C191.5 173.03 192.18 173.392 192.713 173.924C193.246 174.456 193.609 175.134 193.756 175.871C193.903 176.609 193.828 177.374 193.539 178.069C193.251 178.764 192.762 179.358 192.135 179.776C191.508 180.194 190.771 180.417 190.017 180.417C189.006 180.416 188.038 180.015 187.323 179.302C186.608 178.589 186.206 177.622 186.205 176.613ZM186.654 176.613C186.654 177.277 186.851 177.926 187.22 178.478C187.59 179.03 188.115 179.46 188.73 179.714C189.345 179.968 190.021 180.034 190.673 179.905C191.326 179.775 191.925 179.456 192.396 178.986C192.866 178.517 193.186 177.919 193.316 177.268C193.446 176.617 193.379 175.942 193.125 175.329C192.87 174.716 192.439 174.192 191.886 173.823C191.333 173.454 190.682 173.257 190.017 173.257C189.125 173.258 188.27 173.612 187.64 174.241C187.009 174.871 186.655 175.724 186.654 176.613V176.613Z" fill="#3F3D56"/>
<path d="M186.205 186.234C186.205 185.482 186.429 184.746 186.848 184.121C187.266 183.495 187.862 183.008 188.558 182.72C189.255 182.432 190.021 182.357 190.761 182.504C191.5 182.65 192.18 183.013 192.713 183.545C193.246 184.076 193.609 184.754 193.756 185.492C193.903 186.23 193.828 186.994 193.539 187.689C193.251 188.384 192.762 188.978 192.135 189.396C191.508 189.814 190.771 190.037 190.017 190.037C189.006 190.036 188.038 189.635 187.323 188.922C186.608 188.209 186.206 187.242 186.205 186.234ZM186.654 186.234C186.654 186.898 186.851 187.547 187.22 188.098C187.59 188.65 188.115 189.08 188.73 189.334C189.345 189.588 190.021 189.655 190.673 189.525C191.326 189.396 191.925 189.076 192.396 188.607C192.866 188.138 193.186 187.54 193.316 186.889C193.446 186.238 193.379 185.563 193.125 184.95C192.87 184.336 192.439 183.812 191.886 183.444C191.333 183.075 190.682 182.878 190.017 182.878C189.125 182.879 188.27 183.233 187.64 183.862C187.009 184.491 186.655 185.344 186.654 186.234V186.234Z" fill="#3F3D56"/>
</g>
<defs>
<clipPath id="clip0">
<rect width="442" height="302" fill="white"/>
</clipPath>
</defs>
</svg>
