<?xml version="1.0" standalone="no"?>
<!DOCTYPE svg PUBLIC "-//W3C//DTD SVG 20010904//EN"
 "http://www.w3.org/TR/2001/REC-SVG-20010904/DTD/svg10.dtd">
<svg version="1.0" xmlns="http://www.w3.org/2000/svg"
 width="400.000000pt" height="400.000000pt" viewBox="0 0 400.000000 400.000000"
 preserveAspectRatio="xMidYMid meet">
<metadata>
Created by potrace 1.11, written by Peter Selinger 2001-2013
</metadata>
<g transform="translate(0.000000,400.000000) scale(0.100000,-0.100000)"
fill="#000000" stroke="none">
<path d="M1948 3453 c-10 -2 -18 -8 -18 -13 0 -7 -28 -18 -40 -16 -3 1 -17 -9
-30 -22 -14 -12 -35 -25 -47 -28 -13 -4 -23 -10 -23 -15 0 -5 -9 -9 -21 -9
-11 0 -18 -4 -15 -9 3 -5 -5 -12 -19 -15 -14 -4 -25 -11 -25 -17 0 -6 -4 -7
-10 -4 -5 3 -19 -3 -31 -14 -12 -11 -25 -18 -29 -16 -5 3 -11 -2 -14 -11 -3
-8 -10 -13 -15 -10 -5 4 -16 -1 -24 -9 -9 -8 -20 -15 -26 -15 -5 0 -15 -8 -20
-17 -6 -10 -11 -15 -11 -10 0 4 -11 0 -24 -9 -14 -8 -28 -15 -31 -14 -4 1 -17
-7 -30 -18 -13 -11 -26 -18 -29 -15 -3 3 -8 -1 -12 -10 -3 -9 -14 -14 -25 -12
-10 2 -18 -1 -16 -8 1 -7 -4 -11 -10 -9 -7 1 -13 -3 -13 -10 0 -6 -3 -8 -6 -5
-4 3 -18 -2 -32 -13 -13 -11 -29 -17 -35 -13 -5 3 -7 2 -4 -4 3 -5 -9 -16 -28
-23 -19 -7 -32 -17 -29 -22 4 -5 0 -8 -8 -6 -7 1 -27 -7 -45 -20 -17 -12 -35
-22 -39 -22 -4 0 -15 -7 -25 -16 -9 -8 -26 -17 -36 -19 -10 -1 -17 -8 -15 -15
1 -6 -2 -8 -8 -5 -6 4 -18 -1 -26 -11 -9 -11 -12 -13 -8 -5 5 9 -2 8 -19 -5
-15 -10 -27 -22 -27 -26 0 -4 -7 -5 -15 -2 -10 4 -15 0 -15 -11 0 -9 -4 -14
-9 -11 -13 8 -62 -19 -53 -29 4 -5 -1 -6 -10 -2 -10 3 -19 0 -22 -9 -3 -9 -10
-13 -15 -10 -5 3 -21 -7 -37 -22 -15 -15 -24 -20 -19 -12 4 8 -4 4 -18 -9
l-27 -24 0 -729 c0 -548 3 -728 12 -728 6 0 8 -3 5 -7 -11 -10 13 -33 35 -33
10 0 16 -4 13 -10 -3 -6 3 -10 14 -10 12 0 21 -4 21 -9 0 -5 8 -11 18 -15 40
-14 122 -63 115 -70 -5 -4 -3 -6 2 -5 17 5 56 -12 50 -22 -3 -5 1 -6 9 -3 10
4 16 1 16 -7 0 -7 3 -9 7 -6 3 4 13 1 21 -5 18 -15 48 -33 90 -52 17 -8 32
-18 32 -21 0 -3 -5 -3 -12 1 -7 4 -8 3 -4 -4 4 -6 13 -9 21 -5 8 3 15 0 15 -7
0 -6 4 -9 9 -5 5 3 15 -1 23 -8 7 -7 25 -18 41 -24 15 -7 27 -17 27 -23 0 -6
4 -9 8 -6 5 3 25 -6 45 -19 20 -14 41 -25 47 -25 6 0 8 -5 4 -12 -5 -9 -2 -9
9 1 15 11 17 11 17 -2 0 -8 11 -18 25 -21 14 -4 25 -11 25 -17 0 -6 5 -7 10
-4 5 3 10 1 10 -6 0 -7 3 -9 7 -6 3 4 15 0 25 -10 10 -9 18 -12 18 -8 0 4 8
-1 18 -11 9 -10 24 -20 32 -22 8 -2 17 -8 18 -13 2 -5 8 -7 13 -3 5 3 9 0 9
-6 0 -6 4 -9 9 -5 5 3 13 1 16 -5 4 -6 26 -20 51 -31 24 -12 44 -25 44 -31 0
-5 5 -6 10 -3 6 3 10 1 10 -5 0 -6 4 -8 10 -5 5 3 10 1 10 -4 0 -6 7 -11 16
-11 8 0 12 -4 9 -10 -3 -5 0 -7 9 -4 8 3 23 -3 34 -13 10 -10 25 -19 33 -21 8
-2 22 -11 32 -20 29 -26 89 -20 133 13 20 16 34 22 29 14 -4 -8 3 -3 18 10 14
12 30 20 36 16 6 -3 11 1 11 9 0 9 6 15 13 14 6 -2 11 2 10 9 -2 7 3 10 11 7
8 -3 17 -1 21 5 3 6 14 11 25 11 10 0 21 7 24 16 3 8 10 12 16 9 5 -3 10 1 10
10 0 9 4 13 10 10 5 -3 27 6 49 21 23 15 45 23 52 18 7 -4 9 -3 5 4 -3 6 3 16
14 22 11 6 20 7 20 3 0 -4 5 0 11 10 5 9 16 17 23 17 8 0 19 7 26 15 7 9 18
14 24 12 6 -2 18 3 26 12 8 9 29 23 45 31 17 8 42 22 56 32 14 10 29 15 33 11
3 -3 6 -1 6 5 0 7 7 12 15 12 8 0 15 5 15 10 0 6 3 9 8 8 15 -3 42 14 36 24
-3 5 0 8 7 7 22 -3 50 12 42 24 -3 6 -1 7 6 3 6 -4 18 -2 26 4 8 7 15 10 15 6
0 -3 9 3 20 14 11 11 29 20 41 20 11 0 18 4 14 9 -3 5 11 15 30 22 19 7 35 17
35 22 0 5 7 6 16 3 8 -3 12 -2 9 4 -3 6 1 10 9 10 9 0 16 5 16 11 0 5 5 7 10
4 6 -3 10 -1 10 5 0 6 5 8 10 5 6 -3 10 -2 10 2 0 5 9 14 21 21 17 11 20 11
14 0 -5 -7 2 -3 14 10 20 20 34 26 54 23 4 0 7 4 7 10 0 6 7 8 17 5 10 -4 14
-4 10 0 -4 4 1 17 12 28 11 12 21 30 23 41 1 11 8 23 13 27 7 5 6 8 -1 8 -5 0
-11 18 -11 40 0 22 3 40 8 40 5 0 9 5 9 11 0 5 -4 7 -10 4 -14 -9 -12 8 3 24
10 11 10 13 0 7 -9 -5 -13 0 -13 14 0 13 4 19 12 14 7 -5 8 -3 3 7 -12 18 -14
69 -3 75 5 3 5 11 0 17 -12 15 -12 67 -1 67 5 0 9 5 9 11 0 5 -4 7 -10 4 -14
-9 -12 8 3 24 10 11 10 13 0 7 -9 -5 -13 0 -13 14 0 13 4 19 12 14 7 -5 8 -3
3 7 -12 18 -14 69 -3 75 5 3 5 11 0 17 -12 15 -12 67 -1 67 5 0 9 5 9 11 0 5
-4 7 -10 4 -14 -9 -12 8 3 24 10 11 10 13 0 7 -9 -5 -13 0 -13 14 0 13 4 19
12 14 7 -5 8 -3 3 7 -12 18 -14 69 -3 75 5 3 5 11 0 17 -12 15 -12 67 -1 67 5
0 9 5 9 11 0 5 -4 7 -10 4 -14 -9 -12 8 3 24 10 11 10 13 0 7 -9 -5 -13 0 -13
14 0 13 4 19 12 14 7 -5 8 -3 3 7 -12 18 -14 69 -3 75 5 3 5 11 0 17 -12 15
-12 67 -1 67 5 0 9 5 9 11 0 5 -4 7 -10 4 -14 -9 -12 8 3 24 10 11 10 13 0 7
-9 -5 -13 0 -13 14 0 13 4 19 12 14 7 -5 8 -3 3 7 -12 18 -14 69 -3 75 5 3 5
11 0 17 -12 15 -12 67 -1 67 5 0 9 5 9 11 0 5 -4 8 -8 5 -5 -3 -9 8 -9 24 0
16 3 27 7 25 4 -2 7 2 7 10 0 8 -5 11 -10 8 -6 -4 -8 3 -5 15 4 15 2 22 -8 22
-8 0 -14 7 -14 15 0 8 -3 14 -7 14 -20 -3 -34 2 -28 11 3 6 -1 7 -9 4 -9 -3
-16 -1 -16 5 0 6 -6 11 -14 11 -8 0 -17 7 -20 16 -3 9 -13 14 -20 11 -8 -3
-16 -3 -18 1 -4 9 -58 42 -80 49 -10 3 -18 9 -18 14 0 5 -9 9 -21 9 -11 0 -17
5 -14 10 3 6 -3 10 -14 10 -12 0 -21 5 -21 10 0 6 -7 10 -15 10 -8 0 -15 5
-15 11 0 5 -4 8 -10 4 -5 -3 -18 3 -30 15 -11 11 -22 20 -25 20 -3 0 -10 0
-16 0 -5 0 -8 4 -5 9 3 5 -2 8 -12 7 -9 0 -16 4 -15 11 2 7 -6 10 -16 8 -11
-2 -22 3 -25 11 -3 9 -10 12 -16 9 -5 -3 -10 -1 -10 4 0 6 -7 11 -15 11 -8 0
-15 5 -15 10 0 6 -7 10 -15 10 -8 0 -15 5 -15 12 0 6 -3 8 -6 5 -4 -3 -16 -1
-28 5 -11 7 -24 11 -29 10 -4 -1 -6 4 -5 10 2 7 -3 12 -10 10 -7 -1 -15 4 -18
12 -3 8 -12 12 -20 9 -8 -3 -14 1 -14 8 0 7 -3 10 -6 6 -3 -3 -11 -2 -18 4
-30 25 -85 57 -90 51 -3 -3 -6 1 -6 8 0 7 -3 11 -6 7 -4 -3 -12 -1 -20 6 -37
33 -44 37 -65 37 -5 0 -7 6 -3 13 4 6 3 9 -1 4 -5 -4 -19 0 -32 8 -13 9 -23
13 -23 10 0 -3 -10 3 -22 14 -11 11 -25 18 -30 15 -4 -3 -8 0 -8 5 0 6 -7 11
-15 11 -8 0 -15 4 -15 8 0 5 -16 14 -35 22 -19 8 -35 18 -35 22 0 5 -5 6 -10
3 -6 -3 -13 1 -16 9 -3 9 -10 13 -15 10 -5 -3 -9 0 -9 6 0 6 -4 8 -10 5 -5 -3
-10 -2 -10 3 0 6 -7 13 -16 16 -10 4 -13 2 -8 -7 5 -9 4 -9 -7 1 -13 12 -21
13 -51 5z m65 -139 c9 -4 17 -10 17 -15 0 -5 7 -9 15 -9 8 0 15 -5 15 -11 0
-5 5 -7 10 -4 6 3 13 -1 16 -9 3 -9 10 -14 14 -11 5 3 16 -3 26 -12 10 -10 20
-18 23 -18 3 0 5 -3 4 -7 -2 -4 4 -5 12 -2 8 3 24 -4 36 -15 13 -12 28 -21 35
-21 7 0 23 -10 35 -22 12 -13 18 -16 14 -8 -6 11 -3 10 12 -2 11 -10 25 -18
32 -18 6 0 14 -6 17 -14 3 -8 13 -12 25 -9 13 4 19 1 17 -8 -2 -8 3 -13 10
-11 6 1 12 -2 12 -6 0 -5 16 -14 35 -22 19 -8 35 -18 35 -22 0 -5 5 -6 10 -3
6 3 13 -1 16 -9 3 -9 10 -14 14 -11 4 3 19 -4 32 -15 14 -11 28 -16 32 -13 3
3 6 1 6 -5 0 -7 7 -12 15 -12 9 0 18 -7 21 -15 4 -8 15 -15 25 -15 10 0 19 -5
19 -11 0 -5 5 -7 10 -4 6 3 10 1 10 -5 0 -6 5 -8 10 -5 6 3 10 2 10 -2 0 -5 9
-14 21 -21 17 -11 20 -11 14 0 -3 7 3 3 14 -10 11 -13 22 -23 25 -22 22 1 26
-1 20 -12 -5 -7 -3 -8 6 -3 7 4 15 3 19 -3 3 -6 13 -12 21 -14 8 -2 23 -11 32
-21 9 -10 19 -18 22 -18 24 3 36 0 31 -8 -3 -5 11 -15 30 -21 19 -6 33 -15 31
-19 -3 -4 5 -8 17 -8 12 -1 23 -7 25 -13 2 -5 9 -7 15 -3 6 4 8 0 4 -9 -4 -11
-1 -14 12 -11 10 2 23 -3 30 -11 8 -9 21 -16 30 -16 14 0 14 -2 1 -10 -8 -5
-10 -10 -4 -10 14 0 13 -42 -1 -52 -6 -5 -6 -8 1 -8 12 0 12 -69 -1 -90 -5 -8
-4 -11 2 -7 5 4 10 -6 10 -23 0 -17 -5 -27 -10 -23 -6 4 -7 1 -2 -7 12 -20 13
-80 1 -80 -8 0 -8 -3 0 -8 12 -8 12 -71 -1 -91 -5 -8 -4 -12 1 -8 5 3 9 -25 9
-64 0 -39 -4 -69 -10 -69 -7 0 -7 -3 0 -8 6 -4 10 -38 10 -77 0 -38 -4 -73
-10 -77 -6 -5 -6 -8 1 -8 12 0 12 -69 -1 -90 -5 -8 -4 -11 2 -7 5 4 10 -6 10
-23 0 -17 -5 -27 -10 -23 -6 4 -7 1 -2 -7 12 -20 13 -80 1 -80 -8 0 -8 -3 0
-8 12 -8 12 -71 -1 -91 -5 -9 -4 -12 1 -8 13 8 12 -126 -1 -135 -6 -5 -6 -8 1
-8 12 0 12 -69 -1 -90 -5 -9 -4 -11 3 -6 16 10 15 -7 0 -23 -10 -11 -10 -13 0
-7 6 4 12 2 12 -3 0 -6 -7 -11 -15 -11 -8 0 -15 -4 -15 -8 0 -5 -16 -14 -35
-22 -19 -8 -35 -18 -35 -22 0 -5 -4 -6 -10 -3 -5 3 -10 3 -10 -2 0 -4 -18 -17
-40 -27 -22 -11 -40 -24 -40 -29 0 -6 -3 -7 -7 -4 -3 4 -17 0 -30 -8 -13 -9
-28 -13 -34 -10 -5 4 -8 1 -7 -5 2 -7 -12 -20 -29 -30 -18 -9 -39 -22 -46 -29
-8 -6 -17 -8 -20 -4 -4 3 -7 1 -7 -6 0 -7 -4 -10 -9 -7 -5 4 -11 2 -13 -3 -1
-5 -10 -11 -18 -13 -8 -2 -23 -11 -34 -20 -10 -10 -22 -15 -26 -13 -5 3 -11
-2 -14 -11 -3 -8 -10 -12 -16 -9 -5 3 -10 2 -10 -3 0 -6 -12 -15 -27 -21 -35
-13 -87 -44 -91 -54 -2 -4 -8 -5 -13 -1 -5 3 -9 0 -9 -6 0 -6 -4 -8 -10 -5 -5
3 -10 2 -10 -4 0 -5 -21 -20 -47 -33 -27 -13 -51 -27 -55 -33 -4 -5 -8 -6 -8
-1 0 5 -8 2 -18 -7 -10 -10 -22 -14 -25 -10 -4 3 -7 -1 -7 -11 0 -9 -4 -15 -9
-11 -5 3 -12 1 -16 -5 -4 -6 -10 -8 -15 -5 -4 3 -11 -2 -14 -11 -3 -8 -10 -12
-16 -9 -5 3 -10 1 -10 -5 0 -6 -4 -8 -10 -5 -5 3 -10 1 -10 -4 0 -6 -6 -11
-14 -11 -7 0 -19 -7 -26 -15 -7 -8 -16 -12 -21 -9 -5 3 -9 0 -9 -6 0 -6 -4 -9
-9 -6 -5 3 -12 -1 -15 -10 -3 -8 -10 -12 -16 -9 -5 3 -10 1 -10 -5 0 -6 -5 -8
-10 -5 -6 3 -13 -1 -16 -9 -3 -9 -10 -13 -15 -10 -5 3 -9 2 -9 -3 0 -15 -53
-34 -61 -22 -3 6 -9 11 -12 11 -15 -1 -67 23 -67 30 0 4 -7 8 -15 8 -8 0 -15
4 -15 9 0 5 -11 12 -25 15 -14 4 -25 11 -25 17 0 6 -4 8 -9 5 -5 -3 -20 5 -35
19 -14 13 -26 19 -26 12 0 -9 -2 -9 -8 -1 -4 6 -22 19 -39 28 -18 9 -33 21
-33 26 0 5 -7 7 -15 4 -8 -4 -15 -2 -15 4 0 10 -78 47 -93 44 -4 -1 -6 1 -5 5
2 5 -1 9 -5 10 -4 1 -15 9 -23 18 -9 8 -20 13 -25 10 -5 -4 -9 -2 -9 3 0 5
-14 15 -30 22 -16 7 -30 16 -30 19 0 4 -16 13 -35 21 -19 8 -35 18 -35 23 0 5
-6 7 -13 4 -13 -5 -60 27 -52 35 3 3 -1 5 -7 5 -26 0 -88 35 -81 47 3 6 3 8
-2 4 -4 -4 -14 -3 -22 3 -7 6 -13 8 -13 5 0 -4 -6 -1 -14 6 -8 7 -12 16 -9 20
2 4 -3 5 -11 2 -9 -3 -16 -1 -16 6 0 6 -4 9 -10 5 -5 -3 -18 2 -28 12 -10 10
-25 19 -33 21 -8 2 -18 9 -24 16 -5 6 -26 18 -45 26 -19 8 -41 21 -48 30 -11
12 -12 12 -6 0 6 -11 2 -10 -13 2 -11 10 -25 18 -31 18 -7 0 -12 4 -12 8 0 5
-10 14 -22 20 -13 6 -17 11 -10 11 7 1 10 5 7 11 -3 5 -1 10 6 10 8 0 7 5 -2
17 -11 13 -11 17 -1 20 6 3 9 10 5 16 -13 21 -14 49 -2 41 8 -5 9 -2 1 11 -6
11 -6 30 -1 47 4 16 4 26 0 23 -5 -2 -8 6 -8 20 0 14 4 22 10 18 6 -4 6 0 -1
12 -6 11 -6 30 -1 47 4 16 4 26 0 23 -5 -2 -8 6 -8 20 0 14 4 22 10 18 6 -3 7
-1 3 6 -12 19 -15 82 -4 75 7 -5 7 -1 0 11 -6 11 -6 30 -1 47 4 16 4 26 0 23
-5 -2 -9 6 -8 20 0 14 4 22 10 18 6 -4 6 0 -1 12 -6 11 -6 30 -1 47 4 16 4 26
0 23 -5 -2 -9 6 -8 20 0 14 4 22 10 18 6 -4 6 0 -1 12 -6 11 -6 30 -1 47 4 16
4 26 0 23 -5 -2 -8 6 -8 20 0 14 4 22 10 18 6 -4 6 0 -1 12 -6 11 -6 30 -1 47
5 17 4 26 -2 23 -12 -8 -11 2 2 27 6 11 7 18 1 14 -5 -3 -9 5 -9 19 0 14 4 22
10 18 6 -4 7 -1 2 6 -11 20 -12 71 -1 71 7 0 8 3 1 8 -14 10 -18 55 -4 46 8
-5 8 -1 0 14 -14 26 -14 35 0 26 8 -5 8 -1 0 14 -14 26 -14 35 0 26 8 -5 8 -1
0 14 -14 27 -14 35 2 26 10 -6 10 -4 0 7 -16 16 -17 33 -2 23 8 -5 9 -2 1 12
-7 13 -7 25 0 37 8 15 7 18 -2 12 -8 -5 -11 -3 -8 6 3 8 11 13 17 12 6 -2 10
3 8 10 -1 6 6 11 16 11 9 -1 17 5 17 13 0 8 4 12 9 9 5 -3 20 3 33 14 14 11
28 17 31 13 4 -3 9 2 13 11 3 9 10 14 14 11 5 -3 14 1 22 8 20 19 68 48 68 42
0 -4 7 1 16 9 8 9 19 14 24 11 4 -3 10 2 14 10 3 8 10 15 17 15 6 0 23 9 39
20 15 11 30 17 34 13 3 -3 6 -1 6 5 0 7 5 12 11 12 7 0 18 8 25 18 9 11 13 13
14 4 0 -7 5 -10 10 -7 6 4 7 12 4 18 -4 7 -4 9 1 5 4 -4 20 1 34 11 14 10 36
22 49 25 13 4 19 12 16 18 -5 7 -1 9 9 5 10 -3 17 -2 17 3 0 6 5 10 11 10 6 0
17 7 26 15 8 8 19 13 24 10 5 -4 9 -1 9 4 0 6 6 11 13 11 7 0 23 9 35 20 12
12 22 18 22 14 0 -4 8 0 18 9 9 8 21 15 25 15 5 0 20 9 33 21 15 13 24 16 24
8 1 -7 6 -5 14 5 7 10 16 15 19 11 4 -3 7 -2 7 3 0 5 17 18 38 29 20 11 40 24
43 29 4 5 14 6 23 3 9 -4 15 -2 13 4 -1 5 23 23 53 40 30 17 60 35 67 41 7 5
18 6 24 2 7 -4 9 -3 5 4 -7 11 13 23 29 16 6 -2 18 -7 28 -10z"/>
<path d="M1369 2403 c-1 -47 -1 -806 0 -813 1 -3 26 -6 56 -5 48 0 55 2 56 20
0 11 2 70 2 132 l2 111 63 66 c34 36 66 66 70 66 4 -1 74 -90 155 -198 l149
-197 67 0 67 0 -69 90 c-37 49 -79 104 -92 120 -12 17 -63 82 -113 146 l-90
117 32 35 c35 40 196 214 241 261 17 17 41 44 54 58 l23 27 -66 0 c-59 0 -69
-3 -93 -28 -16 -16 -93 -97 -172 -180 -80 -84 -163 -172 -187 -196 l-42 -44 2
219 c1 244 5 230 -70 230 l-44 0 -1 -37z"/>
<path d="M2109 2398 c-1 -48 0 -749 0 -788 l1 -26 294 1 293 0 -1 53 -1 52
-45 1 c-25 0 -131 0 -236 0 l-192 1 2 369 c1 409 7 379 -70 379 l-44 0 -1 -42z"/>
</g>
</svg>
